<?xml version="1.0" encoding="utf-8"?>
<svg xmlns="http://www.w3.org/2000/svg" viewBox="-251.6747 -195.4035 860.4 83.32" width="860.4px" height="83.32px">
  <g transform="matrix(1, 0, 0, 1, -361.4747314453125, -400.3335075378418)" id="object-0">
    <linearGradient id="SVGID_1_" gradientUnits="userSpaceOnUse" x1="109.8" y1="245.6692" x2="176.9479" y2="245.6692">
      <stop offset="0" style="stop-color:#A18357"/>
      <stop offset="0.45" style="stop-color:#EEC280"/>
      <stop offset="0.9725" style="stop-color:#A18357"/>
    </linearGradient>
    <path class="st1" d="M176.95,229.38c0,19.2-16.18,26.77-36.42,26.77h-13.27v29.09h6.98v1.16H109.8v-1.16h6.98V206.1h-6.98v-1.16 h30.72C161.82,204.94,176.95,210.87,176.95,229.38z M165.31,231.01c0-12.69-4.65-24.21-24.79-24.21h-13.27v47.48h13.27 C159.61,254.28,165.31,245.09,165.31,231.01z" style="fill: url(&quot;#SVGID_1_&quot;);"/>
    <linearGradient id="SVGID_00000157986288881517496270000010913341693747691697_" gradientUnits="userSpaceOnUse" x1="166.4699" y1="245.6692" x2="242.1123" y2="245.6692">
      <stop offset="0" style="stop-color:#A18357"/>
      <stop offset="0.45" style="stop-color:#EEC280"/>
      <stop offset="0.9725" style="stop-color:#A18357"/>
    </linearGradient>
    <path style="fill:url(#SVGID_00000157986288881517496270000010913341693747691697_);" d="M211.86,285.24h15.01l-12.1-31.42h-28.98 l-8.26,21.41c-3.14,8.96-1.51,9.89,9.89,10.01v1.16h-20.95v-1.16c3.37-0.12,5.35-1.05,8.61-8.38l27.7-71.92h4.31l30.96,80.3h4.07 v1.16h-30.26V285.24z M175.2,281.4l-1.51,3.84L175.2,281.4z M214.3,252.65l-14.08-36.31l-13.96,36.31H214.3z"/>
    <linearGradient id="SVGID_00000032606999209322953320000001499358073519137952_" gradientUnits="userSpaceOnUse" x1="243.8521" y1="246.6" x2="315.8875" y2="246.6">
      <stop offset="0" style="stop-color:#A18357"/>
      <stop offset="0.45" style="stop-color:#EEC280"/>
      <stop offset="0.9725" style="stop-color:#A18357"/>
    </linearGradient>
    <path style="fill:url(#SVGID_00000032606999209322953320000001499358073519137952_);" d="M250.83,260.33V206.1h-6.98v-1.16h29.09 v1.16h-11.64v55.04c0,17.92,6.17,25.25,19.32,25.25c15.71,0,26.88-10.47,26.88-25.02v-43.99c0-9.31-0.7-11.06-9.31-11.29v-1.16 h17.69v1.16c-5,0.23-6.63,1.98-6.63,11.29v43.41c0,16.87-11.87,27.46-30.37,27.46C261.19,288.26,250.83,279.77,250.83,260.33z"/>
    <linearGradient id="SVGID_00000085235417770994556300000008751052967575094451_" gradientUnits="userSpaceOnUse" x1="317.0455" y1="245.6692" x2="377.4437" y2="245.6692">
      <stop offset="0" style="stop-color:#A18357"/>
      <stop offset="0.45" style="stop-color:#EEC280"/>
      <stop offset="0.9725" style="stop-color:#A18357"/>
    </linearGradient>
    <path style="fill:url(#SVGID_00000085235417770994556300000008751052967575094451_);" d="M341.48,206.1h-6.98v79.13h22.58 c15.36,0,15.71-0.47,19.09-22.11h1.28l-3.37,23.27h-50.04v-80.3h-6.98v-1.16h24.44V206.1z"/>
    <linearGradient id="SVGID_00000146473906591712665670000005396603399552914078_" gradientUnits="userSpaceOnUse" x1="380.9294" y1="245.6692" x2="405.368" y2="245.6692">
      <stop offset="0" style="stop-color:#A18357"/>
      <stop offset="0.45" style="stop-color:#EEC280"/>
      <stop offset="0.9725" style="stop-color:#A18357"/>
    </linearGradient>
    <path style="fill:url(#SVGID_00000146473906591712665670000005396603399552914078_);" d="M405.37,206.1h-6.98v79.13h6.98v1.16 h-24.44v-1.16h6.98V206.1h-6.98v-1.16h24.44V206.1z"/>
    <linearGradient id="SVGID_00000170248424884981787380000011489785221215270077_" gradientUnits="userSpaceOnUse" x1="408.8562" y1="245.6692" x2="477.4003" y2="245.6692">
      <stop offset="0" style="stop-color:#A18357"/>
      <stop offset="0.45" style="stop-color:#EEC280"/>
      <stop offset="0.9725" style="stop-color:#A18357"/>
    </linearGradient>
    <path style="fill:url(#SVGID_00000170248424884981787380000011489785221215270077_);" d="M469.02,273.13v-55.74 c0-9.31-1.98-10.94-6.98-11.29v-1.16h15.36v1.16c-4.65,0.35-6.63,1.98-6.63,11.29v69.01h-6.05l-47.48-79.13v66.68 c0,9.31,1.98,10.94,6.98,11.29v1.16h-15.36v-1.16c4.66-0.35,6.63-1.98,6.63-11.29V206.1h-6.63v-1.16h18.97L469.02,273.13z"/>
    <linearGradient id="SVGID_00000142175167906807297340000017010681562962997163_" gradientUnits="userSpaceOnUse" x1="477.9766" y1="245.6692" x2="553.6196" y2="245.6692">
      <stop offset="0" style="stop-color:#A18357"/>
      <stop offset="0.45" style="stop-color:#EEC280"/>
      <stop offset="0.9725" style="stop-color:#A18357"/>
    </linearGradient>
    <path style="fill:url(#SVGID_00000142175167906807297340000017010681562962997163_);" d="M523.36,285.24h15.01l-12.1-31.42h-28.98 l-8.26,21.41c-3.14,8.96-1.51,9.89,9.89,10.01v1.16h-20.95v-1.16c3.37-0.12,5.35-1.05,8.61-8.38l27.7-71.92h4.31l30.96,80.3h4.07 v1.16h-30.26V285.24z M486.7,281.4l-1.51,3.84L486.7,281.4z M525.81,252.65l-14.08-36.31l-13.96,36.31H525.81z"/>
    <linearGradient id="SVGID_00000002360274979907706710000002048034104917175231_" gradientUnits="userSpaceOnUse" x1="578.6313" y1="245.6692" x2="653.1102" y2="245.6692">
      <stop offset="0" style="stop-color:#A18357"/>
      <stop offset="0.45" style="stop-color:#EEC280"/>
      <stop offset="0.9725" style="stop-color:#A18357"/>
    </linearGradient>
    <path style="fill:url(#SVGID_00000002360274979907706710000002048034104917175231_);" d="M603.07,206.1h-6.98v37.01l35.15-28.86 c8.03-6.98,6.75-8.03-2.56-8.15v-1.16h20.95v1.16c-3.96,0.12-6.05,0.58-15.36,7.91l-26.77,21.88l40.85,49.34h4.77v1.16h-24.44 v-1.16h6.05l-35.38-42.71l-3.26,2.79v39.92h6.98v1.16h-24.44v-1.16h6.98V206.1h-6.98v-1.16h24.44V206.1z"/>
    <linearGradient id="SVGID_00000142153212741668919800000015937520499749477253_" gradientUnits="userSpaceOnUse" x1="653.6852" y1="245.6692" x2="729.3276" y2="245.6692">
      <stop offset="0" style="stop-color:#A18357"/>
      <stop offset="0.45" style="stop-color:#EEC280"/>
      <stop offset="0.9725" style="stop-color:#A18357"/>
    </linearGradient>
    <path style="fill:url(#SVGID_00000142153212741668919800000015937520499749477253_);" d="M699.07,285.24h15.01l-12.1-31.42H673 l-8.26,21.41c-3.14,8.96-1.51,9.89,9.89,10.01v1.16h-20.95v-1.16c3.37-0.12,5.35-1.05,8.61-8.38l27.7-71.92h4.31l30.96,80.3h4.07 v1.16h-30.26V285.24z M662.41,281.4l-1.51,3.84L662.41,281.4z M701.51,252.65l-14.08-36.31l-13.96,36.31H701.51z"/>
    <linearGradient id="SVGID_00000134960265465995209160000003634608439156722353_" gradientUnits="userSpaceOnUse" x1="731.0686" y1="245.6692" x2="808.6896" y2="245.6692">
      <stop offset="0" style="stop-color:#A18357"/>
      <stop offset="0.45" style="stop-color:#EEC280"/>
      <stop offset="0.9725" style="stop-color:#A18357"/>
    </linearGradient>
    <path style="fill:url(#SVGID_00000134960265465995209160000003634608439156722353_);" d="M794.72,224.72 c0,16.64-14.78,20.02-27.35,20.6c4.19,1.51,8.15,4.42,11.75,9.31l8.84,12.1c11.06,15.13,16.99,18.27,20.71,18.27v1.4h-4.19 c-10.36,0-17.92-3.96-25.25-13.96l-9.66-13.15c-7.8-10.71-11.06-13.85-13.85-13.85h-7.22v39.8h6.98v1.16h-24.44v-1.16h6.98V206.1 h-6.98v-1.16h30.72C776.1,204.94,794.72,206.22,794.72,224.72z M783.09,226.35c0-12.68-8.15-20.02-21.3-20.02h-13.27v37.7h11.29 h1.98C773.89,244.04,783.09,240.43,783.09,226.35z"/>
    <linearGradient id="SVGID_00000119078982611180484070000013514509764567149985_" gradientUnits="userSpaceOnUse" x1="801.7034" y1="246.6" x2="873.7383" y2="246.6">
      <stop offset="0" style="stop-color:#A18357"/>
      <stop offset="0.45" style="stop-color:#EEC280"/>
      <stop offset="0.9725" style="stop-color:#A18357"/>
    </linearGradient>
    <path style="fill:url(#SVGID_00000119078982611180484070000013514509764567149985_);" d="M808.69,260.33V206.1h-6.98v-1.16h29.09 v1.16h-11.64v55.04c0,17.92,6.17,25.25,19.32,25.25c15.71,0,26.88-10.47,26.88-25.02v-43.99c0-9.31-0.7-11.06-9.31-11.29v-1.16 h17.69v1.16c-5,0.23-6.63,1.98-6.63,11.29v43.41c0,16.87-11.87,27.46-30.37,27.46C819.04,288.26,808.69,279.77,808.69,260.33z"/>
    <linearGradient id="SVGID_00000118386943079105133640000006480357682752490148_" gradientUnits="userSpaceOnUse" x1="874.8969" y1="245.6692" x2="943.4398" y2="245.6692">
      <stop offset="0" style="stop-color:#A18357"/>
      <stop offset="0.45" style="stop-color:#EEC280"/>
      <stop offset="0.9725" style="stop-color:#A18357"/>
    </linearGradient>
    <path style="fill:url(#SVGID_00000118386943079105133640000006480357682752490148_);" d="M935.06,273.13v-55.74 c0-9.31-1.98-10.94-6.98-11.29v-1.16h15.36v1.16c-4.65,0.35-6.63,1.98-6.63,11.29v69.01h-6.05l-47.48-79.13v66.68 c0,9.31,1.98,10.94,6.98,11.29v1.16H874.9v-1.16c4.65-0.35,6.63-1.98,6.63-11.29V206.1h-6.63v-1.16h18.97L935.06,273.13z"/>
    <linearGradient id="SVGID_00000163056071159989322910000009661392605965803415_" gradientUnits="userSpaceOnUse" x1="945.762" y1="245.6692" x2="970.2" y2="245.6692">
      <stop offset="0" style="stop-color:#A18357"/>
      <stop offset="0.45" style="stop-color:#EEC280"/>
      <stop offset="0.9725" style="stop-color:#A18357"/>
    </linearGradient>
    <path style="fill:url(#SVGID_00000163056071159989322910000009661392605965803415_);" d="M970.2,206.1h-6.98v79.13h6.98v1.16 h-24.44v-1.16h6.98V206.1h-6.98v-1.16h24.44V206.1z"/>
  </g>
</svg>
