<?xml version="1.0" encoding="utf-8"?>
<!-- Generator: Adobe Illustrator 26.3.1, SVG Export Plug-In . SVG Version: 6.00 Build 0)  -->
<svg version="1.1" id="Layer_1" xmlns="http://www.w3.org/2000/svg" xmlns:xlink="http://www.w3.org/1999/xlink" x="0px" y="0px"
	 viewBox="214 148 196 196" xml:space="preserve">
<style type="text/css">
	.st0{fill:transparent;}
	.st1{fill:url(#SVGID_1_);}
	.st2{fill:url(#SVGID_00000015336970507325548600000012125017325880506291_);}
	.st3{fill:url(#SVGID_00000055673347661217351900000017310399580373218751_);}
	.st4{fill:url(#SVGID_00000085228563122996808410000007685716840084268678_);}
	.st5{fill:url(#SVGID_00000000204013131828446990000000433472207142150813_);}
</style>
<g>
	<rect class="st0" width="624.6" height="493.2"/>
	<g>
		<g>
			<linearGradient id="SVGID_1_" gradientUnits="userSpaceOnUse" x1="233.7368" y1="246.6" x2="390.8629" y2="246.6">
				<stop  offset="0" style="stop-color:#A18357"/>
				<stop  offset="0.45" style="stop-color:#EEC280"/>
				<stop  offset="0.9725" style="stop-color:#A18357"/>
			</linearGradient>
			<path class="st1" d="M340.71,229.94c-0.16-0.51-0.3-1.03-0.41-1.56c-0.43-2.09-0.44-4.3-0.11-6.51
				c-0.77,0.23-1.55,0.42-2.32,0.58c-0.12,1.02-0.18,2.05-0.16,3.09c0.02,1.89,0.33,3.81,0.95,5.61c1.27,1.41,2.78,2.62,4.43,3.57
				c0.67,0.39,1.35,0.74,2.05,1.06c0.48-0.61,0.98-1.2,1.51-1.78c-1.76-0.76-3.38-1.73-4.77-2.94
				C341.47,230.71,341.08,230.33,340.71,229.94z M283.89,263.26c0.16,0.51,0.3,1.03,0.41,1.56c0.43,2.09,0.44,4.3,0.11,6.51
				c0.78-0.23,1.55-0.42,2.32-0.58c0.12-1.02,0.18-2.05,0.16-3.09c-0.02-1.89-0.33-3.81-0.95-5.61c-1.27-1.41-2.78-2.62-4.43-3.57
				c-0.67-0.39-1.35-0.74-2.05-1.06c-0.47,0.61-0.98,1.2-1.52,1.78c1.76,0.76,3.38,1.73,4.78,2.93
				C283.13,262.49,283.52,262.87,283.89,263.26z M330.58,195.72c-1.29,0.42-2.56,0.92-3.82,1.47c0.11,0.16,0.22,0.31,0.33,0.47
				c0.17,0.26,0.33,0.53,0.5,0.79c-0.28,0.74-0.59,1.46-0.93,2.17c-0.68,1.41-1.48,2.74-2.37,3.98c0.15,0.92,0.35,1.85,0.6,2.77
				c1.59-2,2.98-4.23,4.04-6.66c1.75,3.17,3.07,6.45,3.95,9.69c3.24-0.9,6.72-1.44,10.35-1.56c-1.31,1.82-2.37,3.77-3.22,5.77
				c1.03-0.37,2.01-0.81,2.96-1.29c0.45-0.87,0.94-1.73,1.49-2.57c0.43-0.66,0.89-1.29,1.38-1.91c0.22,0.01,0.43,0.01,0.65,0.02
				c-0.14-1.08-0.33-2.15-0.55-3.2c-0.33,0.34-0.67,0.68-0.99,1.04c-3.64-0.06-7.2,0.32-10.57,1.05c-1.09-3.26-2.58-6.49-4.48-9.59
				C330.17,197.36,330.39,196.55,330.58,195.72z M343.24,258.07c-1.63,0.96-3.13,2.19-4.38,3.62c-0.59,1.81-0.88,3.72-0.87,5.62
				c0,0.77,0.04,1.54,0.11,2.3c0.76,0.11,1.53,0.25,2.3,0.42c-0.22-1.9-0.19-3.79,0.15-5.6c0.1-0.53,0.23-1.06,0.38-1.57
				c0.36-0.39,0.74-0.77,1.15-1.13c1.59-1.42,3.51-2.53,5.58-3.35c-0.59-0.56-1.14-1.13-1.67-1.72
				C345.05,257.08,344.13,257.54,343.24,258.07z M281.36,235.13c1.63-0.96,3.13-2.19,4.38-3.62c0.59-1.81,0.88-3.72,0.87-5.62
				c0-0.77-0.04-1.54-0.11-2.3c-0.76-0.11-1.53-0.25-2.3-0.42c0.22,1.9,0.19,3.79-0.15,5.6c-0.1,0.53-0.23,1.06-0.38,1.57
				c-0.36,0.39-0.75,0.77-1.15,1.13c-1.59,1.42-3.51,2.53-5.58,3.35c0.59,0.56,1.14,1.13,1.67,1.72
				C279.55,236.12,280.47,235.66,281.36,235.13z M294.02,297.48c1.28-0.42,2.56-0.92,3.82-1.47c-0.11-0.16-0.22-0.31-0.33-0.47
				c-0.17-0.26-0.33-0.53-0.5-0.79c0.28-0.74,0.59-1.46,0.93-2.16c0.68-1.41,1.48-2.74,2.37-3.98c-0.15-0.92-0.35-1.85-0.6-2.77
				c-1.59,2-2.98,4.23-4.04,6.66c-1.75-3.17-3.07-6.45-3.95-9.69c-3.24,0.9-6.72,1.44-10.35,1.56c1.31-1.82,2.37-3.77,3.22-5.76
				c-1.03,0.37-2.01,0.81-2.96,1.29c-0.45,0.87-0.94,1.73-1.49,2.57c-0.43,0.65-0.89,1.29-1.38,1.91c-0.22-0.01-0.43-0.01-0.65-0.02
				c0.14,1.08,0.33,2.15,0.55,3.2c0.33-0.34,0.67-0.68,0.99-1.04c3.64,0.06,7.2-0.32,10.57-1.05c1.09,3.26,2.58,6.49,4.48,9.59
				C294.43,295.84,294.21,296.66,294.02,297.48z M366.71,214.7c0.01,0.33,0.01,0.66,0,0.98c0.03,2.83-0.27,5.62-0.82,8.31
				c0.68-0.09,1.36-0.17,2.05-0.22c0.53-2.91,0.79-5.9,0.68-8.92c-0.01-0.41-0.02-0.83-0.03-1.24c-0.35-0.22-0.71-0.43-1.07-0.64
				c-3.02-1.83-6.25-3.23-9.55-4.23c-0.39,0.59-0.78,1.17-1.2,1.73c3.11,0.87,6.18,2.09,9.08,3.76
				C366.14,214.38,366.42,214.54,366.71,214.7z M373.87,230.56c-1.03,0.74-2.09,1.41-3.18,2.01c0.5,0.48,1,0.96,1.48,1.46
				c1.53-0.9,2.99-1.93,4.37-3.07C375.65,230.79,374.76,230.65,373.87,230.56z M360.35,238.06c-1.87,3.1-4.05,5.88-6.42,8.27
				c2.4,2.35,4.61,5.1,6.53,8.18c-2.23-0.22-4.45-0.17-6.61,0.1c0.83,0.7,1.69,1.34,2.58,1.92c0.99-0.05,1.99-0.06,3,0.01
				c0.78,0.04,1.56,0.13,2.34,0.25c0.1,0.19,0.21,0.38,0.31,0.57c0.88-0.68,1.73-1.38,2.54-2.11c-0.48-0.12-0.97-0.24-1.45-0.33
				c-1.77-3.17-3.86-6.05-6.18-8.59c2.28-2.58,4.33-5.48,6.06-8.68c0.82-0.17,1.64-0.38,2.44-0.63c-1.01-0.9-2.07-1.75-3.18-2.57
				c-0.08,0.17-0.16,0.34-0.25,0.51c-0.14,0.28-0.29,0.55-0.44,0.83c-0.78,0.13-1.56,0.22-2.34,0.28c-1.55,0.12-3.09,0.09-4.6-0.06
				c-0.73,0.59-1.43,1.23-2.11,1.91C355.1,238.27,357.73,238.36,360.35,238.06z M369.02,278.84c0.01-0.41,0.02-0.83,0.02-1.24
				c0.08-3.53-0.33-7.03-1.11-10.38c-0.7-0.04-1.4-0.09-2.09-0.17c0.8,3.12,1.27,6.4,1.28,9.75c0.01,0.33,0.01,0.65,0.01,0.98
				c-0.28,0.17-0.57,0.33-0.85,0.49c-2.44,1.44-4.99,2.56-7.59,3.43c0.42,0.54,0.83,1.1,1.22,1.68c2.78-1,5.5-2.27,8.05-3.87
				C368.31,279.28,368.67,279.07,369.02,278.84z M255.58,214.36c-0.01,0.41-0.02,0.83-0.02,1.24c-0.08,3.53,0.33,7.03,1.11,10.38
				c0.7,0.04,1.4,0.09,2.09,0.17c-0.8-3.12-1.27-6.4-1.28-9.75c-0.01-0.33-0.01-0.65-0.01-0.98c0.28-0.17,0.57-0.33,0.85-0.49
				c2.43-1.44,4.99-2.56,7.59-3.43c-0.42-0.54-0.83-1.1-1.22-1.67c-2.78,1-5.5,2.27-8.05,3.87
				C256.29,213.92,255.93,214.13,255.58,214.36z M346.35,283.91c-0.5-0.61-0.97-1.24-1.41-1.89c-0.88-1.29-1.62-2.64-2.25-4.01
				c-0.87-0.33-1.78-0.63-2.7-0.87c0.94,2.37,2.2,4.68,3.77,6.81c-3.63-0.07-7.14-0.57-10.39-1.43c-0.84,3.25-2.11,6.54-3.82,9.74
				c-0.92-2.04-2.08-3.94-3.39-5.67c-0.19,1.07-0.32,2.14-0.38,3.19c0.54,0.83,1.05,1.7,1.5,2.6c0.35,0.7,0.67,1.42,0.96,2.15
				c-0.11,0.18-0.23,0.37-0.34,0.56c1.03,0.43,2.06,0.8,3.1,1.14c-0.14-0.48-0.28-0.95-0.44-1.42c1.86-3.12,3.31-6.37,4.36-9.64
				c3.38,0.69,6.94,1.01,10.58,0.91c0.55,0.61,1.13,1.2,1.74,1.77c0.27-1.31,0.48-2.65,0.63-4.01c-0.19,0.01-0.38,0.04-0.57,0.05
				C346.97,283.89,346.66,283.9,346.35,283.91z M312.5,277.15c-1.86,0.39-3.66,1.1-5.3,2.05c-0.67,0.38-1.32,0.8-1.94,1.25
				c0.29,0.72,0.55,1.45,0.78,2.2c1.54-1.14,3.19-2.07,4.93-2.67c0.51-0.18,1.03-0.33,1.55-0.45c0.52,0.11,1.04,0.26,1.56,0.43
				c2.03,0.67,3.94,1.77,5.7,3.16c0.19-0.79,0.41-1.55,0.65-2.3c-0.83-0.61-1.69-1.18-2.59-1.68
				C316.18,278.2,314.37,277.52,312.5,277.15z M355.39,199.03c-1.25,0.58-2.46,1.22-3.62,1.94c0.19,0.66,0.37,1.33,0.54,2
				c0.6-0.4,1.22-0.77,1.85-1.13C354.62,200.93,355.03,200,355.39,199.03z M312.1,216.05c1.86-0.39,3.66-1.1,5.3-2.05
				c0.67-0.38,1.32-0.8,1.94-1.25c-0.29-0.71-0.55-1.45-0.78-2.2c-1.54,1.14-3.19,2.07-4.93,2.67c-0.51,0.18-1.03,0.33-1.55,0.45
				c-0.52-0.11-1.04-0.26-1.56-0.43c-2.03-0.67-3.94-1.77-5.7-3.16c-0.19,0.79-0.41,1.55-0.66,2.3c0.83,0.61,1.69,1.18,2.59,1.68
				C308.42,215,310.23,215.68,312.1,216.05z M278.25,209.29c0.5,0.61,0.97,1.24,1.41,1.89c0.88,1.29,1.62,2.64,2.25,4.01
				c0.87,0.33,1.78,0.63,2.7,0.87c-0.94-2.37-2.2-4.68-3.77-6.81c3.63,0.07,7.14,0.57,10.39,1.42c0.84-3.25,2.11-6.54,3.82-9.74
				c0.92,2.04,2.08,3.94,3.39,5.67c0.19-1.07,0.32-2.14,0.38-3.19c-0.54-0.83-1.05-1.7-1.5-2.6c-0.35-0.7-0.67-1.42-0.96-2.15
				c0.11-0.19,0.23-0.37,0.34-0.56c-1.03-0.43-2.06-0.8-3.1-1.14c0.14,0.48,0.28,0.95,0.44,1.42c-1.86,3.12-3.31,6.37-4.36,9.64
				c-3.38-0.69-6.94-1.01-10.58-0.91c-0.55-0.61-1.13-1.2-1.74-1.77c-0.27,1.31-0.48,2.65-0.63,4.01c0.19-0.01,0.38-0.04,0.57-0.05
				C277.63,209.31,277.94,209.3,278.25,209.29z M248.07,262.24c0.88,0.17,1.77,0.31,2.67,0.4c1.03-0.74,2.09-1.41,3.18-2.01
				c-0.5-0.48-1-0.96-1.48-1.46C250.91,260.07,249.45,261.1,248.07,262.24z M259.1,256.21c1.01,0.9,2.07,1.75,3.18,2.57
				c0.08-0.17,0.16-0.34,0.25-0.51c0.14-0.28,0.29-0.55,0.44-0.83c0.78-0.13,1.56-0.22,2.34-0.28c1.55-0.12,3.09-0.09,4.6,0.06
				c0.73-0.59,1.43-1.23,2.11-1.91c-2.52-0.37-5.14-0.46-7.77-0.16c1.87-3.1,4.05-5.88,6.42-8.27c-2.4-2.35-4.61-5.1-6.53-8.18
				c2.23,0.22,4.45,0.17,6.61-0.1c-0.83-0.7-1.69-1.34-2.58-1.92c-0.99,0.05-1.99,0.06-3-0.01c-0.78-0.04-1.56-0.13-2.34-0.25
				c-0.1-0.19-0.21-0.38-0.31-0.57c-0.88,0.68-1.73,1.38-2.54,2.11c0.48,0.12,0.97,0.23,1.45,0.33c1.77,3.17,3.86,6.05,6.17,8.59
				c-2.28,2.58-4.33,5.48-6.06,8.68C260.72,255.75,259.9,255.96,259.1,256.21z M330.13,305.23c0.57,0.86,1.18,1.7,1.84,2.51
				c0.13-1.38,0.17-2.75,0.13-4.13c-0.68-0.16-1.36-0.35-2.03-0.54C330.12,303.78,330.13,304.5,330.13,305.23z M382.48,199.23
				c2.12,0.67,4.18,1.55,6.15,2.62c-0.02,2.24-0.26,4.47-0.72,6.64c-1.25,6.13-4.07,11.81-7.95,16.4c0.65,0.17,1.3,0.36,1.95,0.57
				c3.6-4.52,6.23-9.91,7.49-15.7c0.64-2.9,0.93-5.88,0.86-8.87c-2.57-1.52-5.32-2.73-8.16-3.58c-6.22-1.9-12.82-2.11-19.01-0.82
				c-0.04,0.16-0.07,0.33-0.11,0.49c-0.12,0.52-0.28,1.04-0.42,1.55C368.95,196.96,375.94,197.14,382.48,199.23z M353.64,290.15
				c-0.16,0.67-0.33,1.33-0.52,1.99c1.54,0.87,3.16,1.62,4.83,2.24c-0.29-0.85-0.62-1.68-0.98-2.48
				C355.83,291.38,354.71,290.8,353.64,290.15z M295.81,179.02c1.83-6.31,5.48-12.27,10.56-16.88c1.64-1.5,3.43-2.85,5.34-4.01
				c1.93,1.14,3.74,2.47,5.39,3.94c4.68,4.14,8.19,9.43,10.23,15.09c0.47-0.48,0.96-0.94,1.45-1.39
				c-2.12-5.38-5.45-10.36-9.84-14.35c-2.19-2-4.63-3.75-7.25-5.18c-2.6,1.47-5.03,3.24-7.18,5.27
				c-4.75,4.44-8.23,10.05-10.21,16.06c0.12,0.11,0.24,0.22,0.36,0.33C295.06,178.26,295.44,178.64,295.81,179.02z M370.09,259.44
				c0.64,0.32,1.27,0.66,1.9,1.03c1.03-0.06,2.07-0.17,3.1-0.34c-1.13-0.8-2.3-1.53-3.51-2.18
				C371.09,258.46,370.59,258.95,370.09,259.44z M243.51,227.67c0.16-0.05,0.32-0.1,0.48-0.15c0.52-0.16,1.04-0.28,1.56-0.41
				c-4.55-4.74-7.9-10.89-9.35-17.6c-0.48-2.17-0.75-4.39-0.81-6.64c1.95-1.1,4-2.01,6.11-2.7c5.93-1.98,12.26-2.38,18.18-1.32
				c-0.18-0.65-0.34-1.31-0.48-1.97c-5.71-0.85-11.7-0.44-17.35,1.36c-2.83,0.89-5.56,2.14-8.11,3.69
				c-0.03,2.99,0.29,5.97,0.98,8.86C236.18,217.13,239.3,222.95,243.51,227.67z M389.88,282.4c-1.46-6.33-4.58-12.16-8.79-16.87
				c-0.16,0.05-0.32,0.1-0.48,0.15c-0.52,0.15-1.04,0.28-1.56,0.41c4.55,4.74,7.9,10.89,9.35,17.6c0.48,2.17,0.75,4.39,0.81,6.64
				c-1.95,1.1-4,2.01-6.11,2.7c-5.93,1.98-12.26,2.38-18.18,1.32c0.18,0.65,0.34,1.31,0.48,1.97c5.71,0.85,11.7,0.44,17.34-1.36
				c2.83-0.89,5.56-2.14,8.11-3.69C390.89,288.27,390.57,285.29,389.88,282.4z M331.35,188.47c-0.02-1.77-0.18-3.56-0.48-5.32
				c-0.59,0.68-1.15,1.38-1.68,2.11c0.13,1.26,0.18,2.51,0.15,3.76C330.01,188.82,330.68,188.64,331.35,188.47z M242.12,293.97
				c-2.12-0.67-4.18-1.55-6.15-2.62c0.03-2.24,0.27-4.47,0.72-6.64c1.25-6.13,4.07-11.81,7.95-16.4c-0.65-0.17-1.3-0.36-1.95-0.57
				c-3.6,4.52-6.23,9.91-7.49,15.7c-0.64,2.9-0.93,5.88-0.86,8.87c2.57,1.52,5.32,2.73,8.16,3.58c6.22,1.9,12.82,2.11,19.01,0.83
				c0.04-0.16,0.07-0.33,0.11-0.49c0.12-0.52,0.28-1.04,0.42-1.55C255.65,296.24,248.66,296.06,242.12,293.97z M328.79,314.18
				c-1.83,6.31-5.48,12.27-10.56,16.88c-1.64,1.5-3.43,2.85-5.34,4.01c-1.93-1.14-3.74-2.46-5.4-3.94
				c-4.68-4.14-8.19-9.43-10.23-15.09c-0.47,0.48-0.96,0.94-1.45,1.39c2.12,5.38,5.45,10.36,9.84,14.35c2.18,2,4.63,3.75,7.25,5.18
				c2.6-1.47,5.03-3.24,7.18-5.27c4.75-4.44,8.23-10.05,10.21-16.06c-0.12-0.11-0.24-0.22-0.36-0.33
				C329.54,314.94,329.16,314.56,328.79,314.18z M270.96,203.05c0.16-0.67,0.33-1.33,0.52-1.99c-1.54-0.87-3.16-1.62-4.83-2.24
				c0.29,0.85,0.62,1.68,0.98,2.48C268.77,201.82,269.89,202.4,270.96,203.05z M252.62,232.73c-1.03,0.06-2.07,0.17-3.1,0.34
				c1.13,0.8,2.3,1.53,3.51,2.18c0.48-0.51,0.98-1,1.49-1.49C253.87,233.44,253.24,233.1,252.62,232.73z M312.73,311.84
				c0.37-0.2,0.73-0.4,1.09-0.61c3.1-1.7,5.93-3.81,8.45-6.16c-0.32-0.63-0.61-1.27-0.89-1.91c-2.31,2.27-4.91,4.32-7.82,6
				c-0.28,0.17-0.56,0.34-0.84,0.5c-0.29-0.16-0.57-0.32-0.85-0.49c-2.46-1.38-4.71-3.03-6.75-4.85c-0.26,0.63-0.54,1.26-0.85,1.88
				c2.25,1.91,4.71,3.62,7.37,5.04C312,311.45,312.37,311.65,312.73,311.84z M311.86,181.36c-0.37,0.2-0.73,0.4-1.09,0.61
				c-3.1,1.7-5.93,3.81-8.45,6.16c0.32,0.63,0.61,1.27,0.89,1.91c2.31-2.27,4.91-4.32,7.82-6c0.28-0.17,0.56-0.34,0.84-0.5
				c0.29,0.16,0.57,0.32,0.85,0.49c2.46,1.38,4.71,3.03,6.75,4.85c0.26-0.63,0.54-1.26,0.85-1.88c-2.25-1.91-4.71-3.62-7.37-5.04
				C312.6,181.75,312.23,181.55,311.86,181.36z M294.47,187.97c-0.57-0.86-1.18-1.7-1.84-2.51c-0.13,1.38-0.17,2.75-0.13,4.12
				c0.68,0.16,1.36,0.35,2.03,0.54C294.48,189.42,294.47,188.7,294.47,187.97z M293.25,304.73c0.02,1.77,0.18,3.56,0.48,5.32
				c0.59-0.68,1.15-1.38,1.68-2.1c-0.13-1.26-0.18-2.52-0.15-3.76C294.59,304.38,293.92,304.56,293.25,304.73z M257.89,278.5
				c0-0.33-0.01-0.66,0-0.98c-0.03-2.83,0.27-5.6,0.82-8.29c-0.68,0.09-1.36,0.17-2.05,0.22c-0.53,2.91-0.78,5.89-0.68,8.91
				c0.01,0.41,0.02,0.83,0.03,1.24c0.35,0.22,0.71,0.43,1.07,0.64c3.02,1.83,6.25,3.23,9.55,4.23c0.39-0.59,0.78-1.17,1.2-1.73
				c-3.11-0.87-6.18-2.09-9.09-3.76C258.46,278.82,258.18,278.66,257.89,278.5z M270.44,291.36c-0.46,0.91-0.87,1.85-1.23,2.81
				c1.25-0.58,2.46-1.22,3.62-1.94c-0.19-0.66-0.37-1.33-0.54-2C271.69,290.62,271.07,291,270.44,291.36z"/>
			
				<linearGradient id="SVGID_00000114038960867410685100000018241424089970021299_" gradientUnits="userSpaceOnUse" x1="221.9481" y1="246.6002" x2="402.6519" y2="246.6002">
				<stop  offset="0" style="stop-color:#A18357"/>
				<stop  offset="0.45" style="stop-color:#EEC280"/>
				<stop  offset="0.9725" style="stop-color:#A18357"/>
			</linearGradient>
			<path style="fill:url(#SVGID_00000114038960867410685100000018241424089970021299_);" d="M277.5,324.64
				c6.97-1.71,13.3-5.41,18.17-10.37c4.55-4.63,7.86-10.49,8.99-16.7c3.15-1.81,6-3.94,8.51-6.28c2.61,2.25,5.56,4.28,8.79,5.96
				c1.37,6.15,4.88,11.87,9.6,16.32c5.07,4.76,11.54,8.21,18.57,9.65c2.9,0.61,5.9,0.85,8.88,0.74c1.49-2.59,2.66-5.35,3.48-8.2
				c2.01-6.89,1.96-14.22,0.11-20.92c-1.73-6.25-5.16-12.05-9.97-16.13c0.01-3.63-0.41-7.17-1.19-10.52
				c3.25-1.13,6.46-2.67,9.53-4.61c6.02,1.89,12.75,1.69,18.96-0.17c6.65-2.01,12.88-5.88,17.64-11.25
				c1.98-2.21,3.69-4.68,5.09-7.32c-1.5-2.58-3.31-4.98-5.37-7.12c-4.96-5.18-11.34-8.81-18.06-10.56
				c-6.27-1.62-12.99-1.53-18.92,0.59c-3.15-1.83-6.43-3.24-9.73-4.25c0.64-3.38,0.92-6.93,0.77-10.55
				c4.65-4.26,7.84-10.19,9.33-16.51c1.59-6.77,1.34-14.1-0.93-20.9c-0.93-2.82-2.21-5.53-3.8-8.06c-2.99,0.01-5.97,0.37-8.85,1.09
				c-6.97,1.71-13.3,5.41-18.17,10.37c-4.55,4.63-7.86,10.49-8.99,16.7c-3.15,1.81-6,3.94-8.52,6.28c-2.61-2.25-5.56-4.28-8.79-5.96
				c-1.37-6.15-4.88-11.87-9.6-16.31c-5.07-4.76-11.54-8.21-18.57-9.65c-2.9-0.61-5.9-0.85-8.88-0.74c-1.49,2.59-2.66,5.35-3.48,8.2
				c-2,6.89-1.96,14.22-0.11,20.92c1.73,6.25,5.16,12.05,9.97,16.13c-0.01,3.63,0.41,7.16,1.19,10.52
				c-3.25,1.13-6.46,2.67-9.53,4.61c-6.02-1.89-12.75-1.69-18.96,0.17c-6.65,2.01-12.88,5.89-17.64,11.25
				c-1.98,2.21-3.69,4.68-5.09,7.32c1.5,2.58,3.31,4.98,5.37,7.12c4.96,5.18,11.34,8.81,18.06,10.56
				c6.27,1.62,12.99,1.53,18.92-0.59c3.15,1.83,6.43,3.24,9.73,4.25c-0.64,3.38-0.92,6.93-0.77,10.55
				c-4.65,4.26-7.84,10.19-9.33,16.51c-1.59,6.77-1.34,14.1,0.93,20.9c0.93,2.82,2.21,5.53,3.8,8.06
				C271.64,325.72,274.62,325.36,277.5,324.64z M301.95,296.66c-5.59,2.98-12.18,5.03-19.13,5.14c-0.33,0.01-0.65,0.02-0.98,0.02
				c-0.17-0.28-0.34-0.56-0.5-0.84c-3.62-5.93-5.39-12.6-5.86-18.92c-0.02-0.31-0.03-0.62-0.05-0.94c0.6-0.51,1.23-0.99,1.87-1.43
				c2.69-1.89,5.65-3.19,8.62-4.02c2.97-0.83,6.04-1.11,8.9-0.6c0.53,0.1,1.06,0.22,1.57,0.37c0.4,0.36,0.78,0.73,1.15,1.13
				c1.96,2.15,3.36,4.89,4.24,7.85c0.88,2.95,1.36,6.15,1.2,9.44c-0.03,0.78-0.11,1.56-0.21,2.35
				C302.5,296.36,302.23,296.51,301.95,296.66z M348.57,278.3c0.66,0.42,1.3,0.87,1.93,1.36c0,0.31,0,0.62-0.01,0.94
				c-0.22,6.33-1.73,13.07-5.11,19.14c-0.15,0.29-0.31,0.58-0.47,0.86c-0.33,0.01-0.66,0.01-0.98,0.01
				c-6.94,0.17-13.61-1.63-19.32-4.39c-0.28-0.14-0.56-0.28-0.83-0.43c-0.14-0.78-0.24-1.56-0.31-2.34
				c-0.29-3.27,0.06-6.49,0.83-9.48c0.77-2.99,2.06-5.78,3.93-8.01c0.35-0.41,0.72-0.81,1.1-1.18c0.51-0.17,1.03-0.31,1.56-0.43
				c2.84-0.62,5.92-0.46,8.92,0.25C342.79,275.33,345.8,276.52,348.57,278.3z M360.53,294.55c2.13,6.8,2.22,14.46,0.04,21.61
				c-0.64,2.13-1.49,4.2-2.54,6.18c-2.24,0-4.47-0.21-6.65-0.63c-7.35-1.4-14.09-5.05-19.11-10.1c-3.76-3.75-6.51-8.36-7.89-13.18
				c0.44,0.2,0.88,0.4,1.33,0.58c5.79,2.42,12.39,3.82,19.07,3.49c0.41-0.01,0.83-0.03,1.24-0.05c0.21-0.36,0.42-0.72,0.63-1.08
				c3.4-5.76,5.24-12.26,5.79-18.5c0.04-0.48,0.07-0.97,0.1-1.45C356.17,284.89,358.97,289.48,360.53,294.55z M358.46,260.37
				c-2.98-1.38-5.59-3.3-7.79-5.45c-2.2-2.16-3.98-4.67-4.97-7.41c-0.18-0.51-0.34-1.02-0.47-1.54c0.11-0.52,0.24-1.04,0.41-1.56
				c0.88-2.77,2.56-5.36,4.67-7.6c2.11-2.24,4.65-4.25,7.57-5.76c0.69-0.36,1.41-0.69,2.14-0.99c0.27,0.16,0.54,0.31,0.81,0.48
				c5.37,3.36,10.45,8.04,14.02,14c0.17,0.28,0.34,0.56,0.51,0.84c-0.16,0.29-0.32,0.58-0.48,0.86c-3.33,6.1-8.22,10.97-13.46,14.53
				c-0.26,0.18-0.52,0.34-0.79,0.51C359.89,261,359.16,260.7,358.46,260.37z M377.94,228.8c6.95,1.55,13.64,5.31,18.74,10.78
				c1.52,1.62,2.89,3.39,4.08,5.29c-1.12,1.94-2.42,3.77-3.87,5.45c-4.88,5.66-11.41,9.68-18.3,11.5
				c-5.13,1.38-10.5,1.46-15.36,0.24c0.39-0.28,0.78-0.56,1.17-0.86c4.99-3.8,9.5-8.82,12.56-14.77c0.2-0.36,0.39-0.73,0.58-1.1
				c-0.2-0.36-0.41-0.72-0.62-1.08c-3.29-5.83-8-10.67-13.13-14.27c-0.4-0.28-0.8-0.55-1.2-0.81
				C367.4,227.75,372.77,227.63,377.94,228.8z M347.3,213.51c-2.69,1.89-5.65,3.19-8.62,4.02c-2.97,0.83-6.04,1.11-8.9,0.6
				c-0.53-0.1-1.06-0.22-1.57-0.36c-0.4-0.36-0.78-0.73-1.15-1.14c-1.96-2.15-3.36-4.89-4.24-7.85c-0.88-2.95-1.36-6.15-1.2-9.44
				c0.03-0.78,0.11-1.56,0.22-2.35c0.27-0.15,0.54-0.31,0.82-0.46c5.6-2.98,12.19-5.03,19.13-5.14c0.33-0.01,0.65-0.02,0.98-0.02
				c0.17,0.28,0.34,0.56,0.5,0.84c3.62,5.93,5.39,12.6,5.86,18.92c0.02,0.31,0.03,0.62,0.05,0.94
				C348.57,212.59,347.94,213.07,347.3,213.51z M329.71,180.85c4.82-5.25,11.41-9.16,18.7-10.84c2.16-0.51,4.39-0.81,6.62-0.89
				c1.12,1.94,2.06,3.98,2.78,6.08c2.46,7.06,2.68,14.73,0.81,21.6c-1.37,5.13-3.98,9.82-7.47,13.43c-0.05-0.48-0.1-0.96-0.16-1.44
				c-0.8-6.22-2.89-12.64-6.51-18.26c-0.22-0.35-0.44-0.7-0.67-1.05c-0.42-0.01-0.83-0.01-1.24,0c-6.69-0.06-13.24,1.59-18.92,4.23
				c-0.44,0.2-0.87,0.42-1.3,0.63C323.53,189.46,326.1,184.75,329.71,180.85z M276.03,214.9c-0.66-0.42-1.3-0.88-1.92-1.36
				c0-0.31,0-0.62,0.01-0.94c0.22-6.33,1.73-13.07,5.11-19.14c0.15-0.29,0.31-0.58,0.47-0.86c0.33-0.01,0.66-0.01,0.98-0.02
				c6.94-0.17,13.61,1.63,19.32,4.39c0.28,0.14,0.56,0.28,0.83,0.43c0.14,0.78,0.24,1.56,0.31,2.34c0.29,3.27-0.06,6.49-0.83,9.47
				c-0.77,2.99-2.06,5.78-3.93,8.01c-0.35,0.41-0.72,0.81-1.1,1.18c-0.51,0.17-1.03,0.31-1.56,0.43c-2.84,0.63-5.92,0.46-8.92-0.25
				C281.81,217.87,278.79,216.68,276.03,214.9z M264.07,198.65c-2.13-6.8-2.22-14.46-0.04-21.61c0.64-2.13,1.49-4.2,2.54-6.18
				c2.24,0,4.47,0.21,6.65,0.63c7.35,1.4,14.09,5.05,19.11,10.1c3.76,3.75,6.51,8.36,7.89,13.19c-0.44-0.2-0.88-0.4-1.33-0.58
				c-5.78-2.42-12.39-3.81-19.07-3.49c-0.41,0.01-0.83,0.03-1.24,0.05c-0.21,0.36-0.42,0.72-0.63,1.08
				c-3.4,5.76-5.24,12.26-5.79,18.5c-0.04,0.48-0.07,0.97-0.1,1.45C268.43,208.31,265.63,203.72,264.07,198.65z M266.14,232.83
				c2.98,1.38,5.59,3.3,7.79,5.45c2.2,2.16,3.98,4.67,4.97,7.41c0.19,0.51,0.34,1.02,0.47,1.54c-0.11,0.52-0.24,1.05-0.41,1.56
				c-0.88,2.77-2.56,5.36-4.67,7.6c-2.11,2.24-4.65,4.25-7.57,5.76c-0.69,0.36-1.41,0.69-2.14,0.99c-0.27-0.16-0.54-0.31-0.81-0.48
				c-5.37-3.36-10.45-8.04-14.02-14c-0.17-0.28-0.34-0.56-0.51-0.84c0.16-0.29,0.32-0.58,0.48-0.86c3.33-6.1,8.22-10.97,13.46-14.53
				c0.26-0.18,0.52-0.34,0.79-0.51C264.71,232.2,265.44,232.5,266.14,232.83z M246.66,264.4c-6.95-1.55-13.64-5.31-18.74-10.78
				c-1.52-1.62-2.89-3.4-4.08-5.29c1.12-1.94,2.42-3.77,3.87-5.45c4.88-5.66,11.41-9.68,18.3-11.5c5.13-1.38,10.5-1.46,15.37-0.24
				c-0.39,0.28-0.78,0.56-1.17,0.86c-4.99,3.8-9.5,8.82-12.56,14.77c-0.2,0.36-0.39,0.73-0.58,1.1c0.2,0.36,0.41,0.72,0.62,1.08
				c3.29,5.83,8,10.67,13.13,14.27c0.4,0.28,0.8,0.55,1.2,0.81C257.2,265.45,251.83,265.57,246.66,264.4z M266.87,264.42
				c2.58-1.2,4.94-2.78,7-4.57c2.38-2.06,4.47-4.5,5.98-7.3c0.91-1.66,1.57-3.49,1.91-5.35c-0.42-1.85-1.15-3.65-2.12-5.28
				c-1.62-2.74-3.8-5.1-6.26-7.06c-2.13-1.71-4.54-3.19-7.17-4.29c3.15-1.79,6.41-3.15,9.64-4.07c-0.94-3.23-1.53-6.71-1.7-10.33
				c2.33,1.63,4.87,2.89,7.45,3.77c2.97,1.04,6.13,1.62,9.31,1.53c1.89-0.04,3.8-0.38,5.59-1.02c1.4-1.29,2.59-2.82,3.51-4.48
				c1.56-2.77,2.52-5.84,2.99-8.95c0.42-2.7,0.47-5.54,0.11-8.37c3.14,1.84,5.95,3.98,8.37,6.32c2.32-2.43,5.04-4.68,8.09-6.63
				c-0.25,2.84-0.06,5.66,0.46,8.34c0.59,3.09,1.66,6.12,3.33,8.83c0.99,1.62,2.24,3.1,3.68,4.33c1.81,0.57,3.73,0.83,5.63,0.8
				c3.18-0.03,6.32-0.74,9.25-1.89c2.54-0.99,5.03-2.34,7.3-4.06c-0.02,3.62-0.48,7.12-1.29,10.38c3.26,0.8,6.57,2.03,9.79,3.69
				c-2.58,1.2-4.94,2.78-7,4.57c-2.38,2.06-4.47,4.5-5.98,7.3c-0.91,1.66-1.57,3.49-1.91,5.35c0.42,1.85,1.15,3.65,2.12,5.28
				c1.62,2.74,3.8,5.1,6.26,7.06c2.13,1.71,4.54,3.19,7.17,4.29c-3.15,1.79-6.41,3.15-9.64,4.07c0.94,3.23,1.53,6.71,1.7,10.33
				c-2.33-1.63-4.87-2.89-7.45-3.77c-2.97-1.04-6.13-1.62-9.31-1.53c-1.9,0.04-3.8,0.38-5.59,1.02c-1.4,1.29-2.59,2.82-3.51,4.48
				c-1.56,2.77-2.52,5.84-2.99,8.95c-0.42,2.7-0.47,5.54-0.11,8.37c-3.14-1.84-5.95-3.98-8.37-6.32c-2.32,2.43-5.04,4.68-8.09,6.63
				c0.25-2.84,0.06-5.66-0.46-8.34c-0.59-3.09-1.66-6.12-3.34-8.83c-0.99-1.62-2.23-3.1-3.68-4.33c-1.81-0.57-3.73-0.83-5.63-0.8
				c-3.18,0.03-6.32,0.74-9.25,1.89c-2.54,0.99-5.03,2.34-7.3,4.06c0.02-3.62,0.48-7.12,1.29-10.38
				C273.39,267.32,270.09,266.09,266.87,264.42z M266.79,318c-2.46-7.06-2.68-14.73-0.81-21.6c1.37-5.13,3.98-9.82,7.47-13.43
				c0.05,0.48,0.1,0.96,0.16,1.44c0.8,6.22,2.89,12.64,6.51,18.26c0.22,0.35,0.44,0.7,0.67,1.05c0.42,0.01,0.83,0.01,1.25,0
				c6.69,0.06,13.24-1.59,18.92-4.23c0.44-0.2,0.87-0.42,1.3-0.63c-1.19,4.88-3.76,9.59-7.37,13.48
				c-4.82,5.25-11.41,9.16-18.7,10.84c-2.16,0.51-4.39,0.81-6.63,0.89C268.44,322.14,267.51,320.1,266.79,318z"/>
		</g>
		
			<linearGradient id="SVGID_00000161619125706135232860000011718808744003792571_" gradientUnits="userSpaceOnUse" x1="218.6502" y1="246.6" x2="405.9498" y2="246.6">
			<stop  offset="0" style="stop-color:#A18357"/>
			<stop  offset="0.45" style="stop-color:#EEC280"/>
			<stop  offset="0.9725" style="stop-color:#A18357"/>
		</linearGradient>
		<path style="fill:url(#SVGID_00000161619125706135232860000011718808744003792571_);" d="M312.3,340.25
			c-51.64,0-93.65-42.01-93.65-93.65s42.01-93.65,93.65-93.65s93.65,42.01,93.65,93.65S363.94,340.25,312.3,340.25z M312.3,154.54
			c-50.76,0-92.06,41.3-92.06,92.06s41.3,92.06,92.06,92.06s92.06-41.3,92.06-92.06S363.06,154.54,312.3,154.54z"/>
		
			<linearGradient id="SVGID_00000083808707738528126440000011403178694088370057_" gradientUnits="userSpaceOnUse" x1="285.0375" y1="246.6" x2="339.5625" y2="246.6">
			<stop  offset="0" style="stop-color:#A18357"/>
			<stop  offset="0.45" style="stop-color:#EEC280"/>
			<stop  offset="0.9725" style="stop-color:#A18357"/>
		</linearGradient>
		<path style="fill:url(#SVGID_00000083808707738528126440000011403178694088370057_);" d="M312.3,273.86
			c-15.03,0-27.26-12.23-27.26-27.26c0-15.03,12.23-27.26,27.26-27.26c15.03,0,27.26,12.23,27.26,27.26
			C339.56,261.63,327.33,273.86,312.3,273.86z M312.3,220.92c-14.16,0-25.68,11.52-25.68,25.68c0,14.16,11.52,25.68,25.68,25.68
			c14.16,0,25.68-11.52,25.68-25.68C337.98,232.44,326.46,220.92,312.3,220.92z"/>
		
			<linearGradient id="SVGID_00000153683687599593485870000011128780664673707913_" gradientUnits="userSpaceOnUse" x1="300.905" y1="246.6" x2="323.6951" y2="246.6">
			<stop  offset="0" style="stop-color:#A18357"/>
			<stop  offset="0.45" style="stop-color:#EEC280"/>
			<stop  offset="0.9725" style="stop-color:#A18357"/>
		</linearGradient>
		<circle style="fill:url(#SVGID_00000153683687599593485870000011128780664673707913_);" cx="312.3" cy="246.6" r="11.4"/>
	</g>
</g>
</svg>
